<?xml version="1.0" encoding="UTF-8"?>
<svg xmlns="http://www.w3.org/2000/svg" viewBox="0 0 24 24" width="24" height="24">
  <defs>
    <style type="text/css">.ColorScheme-Text { color: #232629; }</style>
  </defs>
  <g transform="translate(1,1)">
    <path class="ColorScheme-Text" style="fill:currentColor;fill-opacity:1;stroke:none" d="M 11 3 C 6.589 3 3 6.589 3 11 C 3 15.411 6.589 19 11 19 C 15.411 19 19 15.411 19 11 C 19 6.589 15.411 3 11 3 z M 11 4 C 14.86 4 18 7.14 18 11 C 18 14.86 14.86 18 11 18 C 7.14 18 4 14.86 4 11 C 4 7.14 7.14 4 11 4 z M 10.25 7 L 10.25 8.35 L 11.75 8.35 L 11.75 7 z M 10.35 9.75 L 10.35 15 L 11.65 15 L 11.65 9.75 z"/>
  </g>
</svg>
